DataType=double
version=3
OpenSimVersion=4.5-2023-11-26-efcdfd3eb
endheader
time	EMG01_right_gast_med	EMG02_right_glut_max	EMG03_left_gast_med	EMG04_left_glut_max	EMG05_right_glut_med	EMG06_right_bic_fem	EMG07_right_rect_fem	EMG08_right_vast_lat	EMG09_right_vast_med	EMG10_right_tens_fasc_lat	EMG11_left_glut_med	EMG12_left_bic_fem	EMG13_left_rect_fem	EMG14_left_vast_lat	EMG15_left_vast_med	EMG16_left_tens_fasc_lat
0	-0.012662305490266	-0.0002087310139507577	0.09042806953739033	-0.003353699245527763	-0.002506484074116816	0.0009495097260684892	0.01367016640524862	0.005324342044864086	-0.003015827750549085	-0.003701193309535509	0.00165512680279771	0.007676569532841207	-0.0007533691264050308	0.001256369272997411	-0.003640863276770676	-0.001762549213078096
0.01	-0.01140565981952737	0.006485589292724102	0.1518494174018671	-0.002627739302582522	-0.000635412547363962	0.008949319063418802	0.02278625656534419	0.01103849635130361	-0.0005201831363978691	-0.001544904158587841	0.008301672191766784	0.01809453288791476	0.005073121533235204	0.005681394890916245	-0.002159463047094065	0.001777928392108755
0.02	-0.009906460050022435	0.01316630462231192	0.2103391303777973	-0.001907410340000261	0.001379994230012598	0.01733255151232181	0.03192415500920167	0.01688788097249793	0.002051447181632324	0.0007860985831205096	0.01485278197030459	0.02808795689995394	0.01096307599148529	0.009928637032071617	-0.0006607871377224319	0.005285610771791921
0.03	-0.008148122005749884	0.01978814867382708	0.2656239845356091	-0.001192828652838466	0.003530735033724562	0.02603665627642244	0.04104939339781924	0.02284777136286015	0.004697145416893938	0.00329185759536844	0.02124131008169305	0.03759681549281015	0.0168543302811008	0.01398418631909829	0.000858725979185598	0.00871933235123724
0.04	-0.00611539463046626	0.02630692707256143	0.3174508437795969	-0.0004829245824693867	0.005806599415509445	0.03499510574006622	0.05012508706883062	0.02889141913138896	0.007413931508042573	0.005971108128005564	0.02740298227023209	0.04656521844510478	0.02268565462681191	0.01783588399573981	0.002402991651282404	0.01204111150076105
0.05	-0.003794694212894475	0.03268015222034075	0.3655886471666555	0.0002246342878856831	0.008196245317035163	0.04413821306831323	0.05911203610548992	0.03499022222848555	0.01019762651068754	0.008821189466577548	0.03327763166174905	0.05494215565166061	0.02839786189138535	0.02147340070205649	0.003976165532276742	0.01521714075995029
0.06	-0.001174441883147176	0.03886761304563038	0.4098303630451153	0.0009334843394464093	0.01068727717985646	0.05339396009332799	0.06796890466923693	0.04111393436799291	0.01304273030318722	0.01183795506242716	0.03881028832089949	0.06268216385788328	0.03393481111704522	0.02488828618082595	0.005582506466823882	0.01821863364694274
0.07000000000000001	0.001754602241578382	0.04483186789539401	0.4499949012901113	0.001648567603304652	0.01326632306052721	0.06268882097019064	0.07665248509481253	0.04723091424929365	0.01594231799612672	0.015015683659892	0.04395209210252381	0.06974590112186528	0.03924427725282154	0.02807398854256538	0.00722621670289752	0.02102249964991631
0.08	0.004999015634773979	0.05053865354012473	0.485928971271562	0.002376091443603245	0.01591910962933597	0.07194856875944183	0.08511805122637955	0.05330841411474787	0.0188879592390087	0.01834699491286887	0.04866101174220281	0.07610061821274899	0.0442786664232975	0.03102584318120189	0.008911261695854189	0.02361182822445605
0.09	0.008562408653225526	0.05595720729905865	0.5175088696917832	0.00312344528936199	0.01863053439091639	0.08109905448583746	0.09331980279558293	0.05931290591190586	0.02186966432973207	0.02182277373095927	0.0529023662411588	0.08172052004693334	0.04899556627770033	0.0337410327373384	0.01064117298285473	0.02597617277424835
0.1	0.01244514705004406	0.06106050233242788	0.5446421776075803	0.003899074989466264	0.02138473510785601	0.09006695238051222	0.1012113994281056	0.06521044203500467	0.02487586064172399	0.02543210791923531	0.0566491541701048	0.08658701430847347	0.05335813108798846	0.03621852050193957	0.01241883861180986	0.02811163596476149
0.11	0.01664411061234088	0.06582539835539582	0.5672693375436308	0.004712316818943002	0.02416515728331506	0.09878047085840885	0.1087465791938331	0.07096704657367046	0.02789340240510767	0.02916224353302155	0.05988220179270724	0.09068884846838873	0.05733530902421783	0.03845896027845817	0.01424628629647262	0.0300207666138547
0.12	0.021152497066312	0.07023271175365349	0.5853650688431349	0.005573194398286702	0.02695462159745826	0.1071700343800852	0.1158798523887999	0.0765491321859967	0.030907616338387	0.03299856186482295	0.0625901433098297	0.09402213984428462	0.06090192393823155	0.04046458595631675	0.01612446476704682	0.03171228466167604
0.13	0.02595968048332586	0.07426721046567	0.5989395631931614	0.00649218268847068	0.02973539424176938	0.1151689446241012	0.1225672563227604	0.08192393664081241	0.03390238502642544	0.03692458142776508	0.06476924763427994	0.09659030548373318	0.06403862717280541	0.04223908391265723	0.01805302870973739	0.03320065433380144
0.14	0.03105113343269131	0.07791754011634563	0.6080393848637515	0.00747994391553683	0.03248926396522062	0.1227140300934639	0.1287671513548505	0.08705997114298658	0.03686026927160418	0.04092198790087852	0.06642310677387797	0.0984038993478628	0.06673173727410452	0.04378745087960954	0.02003013231917664	0.0345055272066401
0.15	0.03640842207665426	0.08117608892606681	0.6127479851044292	0.008547040984382635	0.03519763011105691	0.1297462923735623	0.1344410326571421	0.09192746968320413	0.03976266990077418	0.04497069461718301	0.06756220179962426	0.09948036373396746	0.06897298699237794	0.04511583907394096	0.02205223594336795	0.03565107731134791
0.16	0.04200928320926766	0.08403880008117182	0.6131857306436359	0.009703634705085694	0.03784160580666159	0.1362115552521206	0.1395543269222915	0.0964988254542004	0.04259002865466532	0.04904893554042295	0.06820336401349718	0.09984370055564164	0.07075919742351679	0.0462313893352853	0.02411392977711233	0.03666525034521693
0.17	0.04782779179784555	0.08650494151658034	0.6095093448665693	0.01095917183600199	0.04040213980013785	0.1420611195386029	0.1440771397322402	0.1007489978507563	0.04532206678522021	0.05313339179299916	0.06836915084217669	0.09952406684940686	0.07209189865567728	0.04714205242645062	0.02620777835395907	0.03757894868072357
